<svg width="21" height="24" viewBox="0 0 21 24" fill="none" xmlns="http://www.w3.org/2000/svg">
<path d="M2.54888 7.14497V20.9929C2.54888 21.8114 2.8426 22.5799 3.35631 23.1316C3.86721 23.6847 4.57852 23.9986 5.32316 23.9999H15.738C16.4827 23.9986 17.194 23.6847 17.7049 23.1316C18.2186 22.5799 18.5125 21.8114 18.5125 20.9929V7.14563C18.8705 7.04353 19.1976 6.85077 19.4636 6.58532C20.0588 5.96904 20.2342 5.04823 19.9089 4.24883C19.5836 3.44943 18.8209 2.92689 17.973 2.92272H15.1546V2.22015C15.1579 1.62933 14.9291 1.062 14.5192 0.644624C14.1096 0.227471 13.5533 -0.00481738 12.9747 1.28148e-05H8.08648C7.50784 -0.00481738 6.95157 0.227471 6.54194 0.644624C6.1321 1.062 5.90331 1.62933 5.90675 2.22015V2.92272H3.08817C1.93132 2.93501 0.996594 3.89008 0.985413 5.07128C0.991003 6.04281 1.6305 6.89116 2.54888 7.14497ZM15.738 22.8758H5.32316C4.38177 22.8758 3.64982 22.0503 3.64982 20.9929V7.19437H17.4116V20.9929C17.4116 22.0503 16.6794 22.8758 15.738 22.8758ZM7.00769 2.22015C7.00403 1.92748 7.11671 1.64579 7.31991 1.43919C7.52332 1.23259 7.79985 1.11908 8.08648 1.12413H12.9747C13.2613 1.11908 13.5379 1.23259 13.7413 1.43919C13.9445 1.64557 14.0571 1.92748 14.0537 2.22015V2.92272H7.00769V2.22015ZM2.38718 4.35202C2.57189 4.15925 2.82411 4.04947 3.08817 4.04684H17.973C18.5215 4.05145 18.9639 4.50702 18.9639 5.06711C18.9636 5.33452 18.8589 5.59074 18.6729 5.77912C18.4867 5.9675 18.2349 6.07223 17.973 6.07025H3.08817C2.542 6.07157 2.09839 5.62038 2.09732 5.06294C2.09689 4.79574 2.20118 4.53974 2.38718 4.35202Z" fill="#083863"/>
</svg>
